<?xml version="1.0" encoding="utf-8"?>
<!-- Generator: Adobe Illustrator 16.0.0, SVG Export Plug-In . SVG Version: 6.00 Build 0)  -->
<!DOCTYPE svg PUBLIC "-//W3C//DTD SVG 1.1//EN" "http://www.w3.org/Graphics/SVG/1.1/DTD/svg11.dtd">
<svg version="1.1" id="Layer_2" xmlns="http://www.w3.org/2000/svg" xmlns:xlink="http://www.w3.org/1999/xlink" x="0px" y="0px"
	 width="588.062px" height="252.791px" viewBox="0 0 588.062 252.791" enable-background="new 0 0 588.062 252.791"
	 xml:space="preserve">
<g>
	<g>
		<g>
			<path fill="#FFFFFF" d="M49.278,199.633c0.182,0,0.275,0.094,0.275,0.277v3.287c0,0.182-0.094,0.275-0.275,0.275h-7.91v26.098
				c0,0.182-0.09,0.275-0.273,0.275h-3.293c-0.182,0-0.273-0.094-0.273-0.275v-26.098h-7.934c-0.182,0-0.273-0.094-0.273-0.275
				v-3.287c0-0.184,0.092-0.277,0.273-0.277H49.278z"/>
			<path fill="#FFFFFF" d="M77.419,199.633c0.182,0,0.273,0.094,0.273,0.277v3.287c0,0.182-0.092,0.275-0.273,0.275H61.362v9.346
				h11.625c0.184,0,0.275,0.094,0.275,0.277v3.289c0,0.182-0.092,0.275-0.275,0.275H61.362v9.344h16.057
				c0.182,0,0.273,0.094,0.273,0.273v3.293c0,0.182-0.092,0.275-0.273,0.275H57.8c-0.184,0-0.275-0.094-0.275-0.275v-29.66
				c0-0.184,0.092-0.277,0.275-0.277H77.419z"/>
			<path fill="#FFFFFF" d="M103.302,225.984c0.182,0,0.277,0.088,0.277,0.271v3.314c0,0.182-0.096,0.275-0.277,0.275H86.509
				c-0.182,0-0.273-0.094-0.273-0.275v-29.688c0-0.182,0.092-0.27,0.273-0.27h3.314c0.18,0,0.273,0.088,0.273,0.27v26.102H103.302z"
				/>
			<path fill="#FFFFFF" d="M131.61,199.633c0.184,0,0.275,0.094,0.275,0.277v3.287c0,0.182-0.092,0.275-0.275,0.275h-16.053v9.346
				h11.627c0.182,0,0.271,0.094,0.271,0.277v3.289c0,0.182-0.09,0.275-0.271,0.275h-11.627v9.344h16.053
				c0.184,0,0.275,0.094,0.275,0.273v3.293c0,0.182-0.092,0.275-0.275,0.275h-19.619c-0.182,0-0.273-0.094-0.273-0.275v-29.66
				c0-0.184,0.092-0.277,0.273-0.277H131.61z"/>
			<path fill="#FFFFFF" d="M161.903,227.02c0.098,0.152,0.07,0.277-0.084,0.377c-2.488,1.631-5.24,2.449-8.25,2.449
				c-2.109,0-4.127-0.426-6.055-1.266c-1.855-0.818-3.486-1.971-4.895-3.461c-2.994-3.15-4.371-6.896-4.135-11.246
				c0.209-3.74,1.645-6.971,4.305-9.684c2.645-2.713,5.836-4.219,9.578-4.516c3.432-0.266,6.574,0.527,9.432,2.385
				c0.15,0.096,0.184,0.225,0.084,0.379l-1.855,2.721c-0.104,0.156-0.227,0.182-0.385,0.086c-2.109-1.363-4.43-1.947-6.959-1.75
				c-2.871,0.223-5.309,1.404-7.322,3.545c-1.996,2.135-3.018,4.656-3.059,7.551c-0.041,3.139,1.047,5.822,3.271,8.059
				c2.207,2.24,4.873,3.355,7.994,3.355c2.221,0,4.254-0.596,6.1-1.791c0.152-0.102,0.281-0.072,0.379,0.08L161.903,227.02z"/>
			<path fill="#FFFFFF" d="M182.681,199.633c4.162,0,7.725,1.475,10.678,4.43c2.953,2.951,4.43,6.512,4.43,10.676
				s-1.477,7.723-4.43,10.676c-2.953,2.949-6.516,4.432-10.678,4.432c-4.164,0-7.721-1.482-10.676-4.432
				c-2.953-2.953-4.43-6.512-4.43-10.676s1.477-7.725,4.43-10.676C174.96,201.107,178.517,199.633,182.681,199.633z
				 M182.681,225.984c3.096,0,5.748-1.096,7.955-3.293c2.193-2.191,3.293-4.844,3.293-7.953c0-3.096-1.1-5.748-3.293-7.951
				c-2.207-2.197-4.859-3.293-7.955-3.293c-3.109,0-5.758,1.096-7.955,3.293c-2.191,2.203-3.289,4.855-3.289,7.951
				c0,3.109,1.098,5.762,3.289,7.953C176.923,224.889,179.571,225.984,182.681,225.984z"/>
			<path fill="#FFFFFF" d="M231.897,199.633c0.184,0,0.273,0.094,0.273,0.277v29.66c0,0.182-0.09,0.275-0.273,0.275h-3.123
				c-0.182,0-0.277-0.094-0.277-0.275v-22.385l-8.498,9.494c-0.143,0.141-0.275,0.141-0.4,0l-8.482-9.475v22.365
				c0,0.182-0.092,0.275-0.275,0.275h-3.121c-0.184,0-0.273-0.094-0.273-0.275v-29.66c0-0.184,0.09-0.277,0.273-0.277h1.225
				c0.209,0,0.391,0.082,0.547,0.25l10.295,11.521l10.316-11.521c0.156-0.168,0.336-0.25,0.551-0.25H231.897z"/>
			<path fill="#FFFFFF" d="M264.087,199.633c0.184,0,0.273,0.094,0.273,0.277v19.088c0,2.953-1.039,5.486-3.119,7.596
				c-2.084,2.109-4.602,3.191-7.555,3.252c-3.025,0.053-5.619-1.021-7.787-3.23c-2.164-2.178-3.246-4.797-3.246-7.848V199.91
				c0-0.184,0.092-0.277,0.273-0.277h3.293c0.184,0,0.273,0.094,0.273,0.277v18.9c0,1.912,0.646,3.57,1.941,4.977
				c1.322,1.406,2.924,2.148,4.811,2.217c1.98,0.068,3.691-0.584,5.125-1.963c1.436-1.393,2.152-3.072,2.152-5.043V199.91
				c0-0.184,0.092-0.277,0.275-0.277H264.087z"/>
			<path fill="#FFFFFF" d="M296.491,199.613c0.184,0,0.273,0.088,0.273,0.27v29.688c0,0.182-0.09,0.275-0.273,0.275h-1.498
				c-0.084,0-0.156-0.037-0.211-0.107l-16.1-21.498v21.33c0,0.182-0.092,0.275-0.273,0.275h-3.121c-0.184,0-0.275-0.094-0.275-0.275
				v-29.688c0-0.182,0.092-0.27,0.275-0.27h1.395c0.08,0,0.15,0.041,0.209,0.125l16.201,21.625v-21.48
				c0-0.182,0.092-0.27,0.275-0.27H296.491z"/>
			<path fill="#FFFFFF" d="M311.319,199.633c0.182,0,0.275,0.094,0.275,0.277v29.66c0,0.182-0.094,0.275-0.275,0.275h-3.313
				c-0.182,0-0.273-0.094-0.273-0.275v-29.66c0-0.184,0.092-0.277,0.273-0.277H311.319z"/>
			<path fill="#FFFFFF" d="M344.038,227.02c0.098,0.152,0.07,0.277-0.084,0.377c-2.49,1.631-5.24,2.449-8.252,2.449
				c-2.107,0-4.125-0.426-6.053-1.266c-1.855-0.818-3.488-1.971-4.895-3.461c-2.994-3.15-4.373-6.896-4.133-11.246
				c0.209-3.74,1.645-6.971,4.303-9.684c2.643-2.713,5.836-4.219,9.578-4.516c3.43-0.266,6.574,0.527,9.428,2.385
				c0.156,0.096,0.184,0.225,0.086,0.379l-1.855,2.721c-0.1,0.156-0.225,0.182-0.381,0.086c-2.109-1.363-4.432-1.947-6.965-1.75
				c-2.867,0.223-5.305,1.404-7.316,3.545c-1.998,2.135-3.018,4.656-3.061,7.551c-0.041,3.139,1.047,5.822,3.27,8.059
				c2.209,2.24,4.873,3.355,7.994,3.355c2.225,0,4.256-0.596,6.102-1.791c0.15-0.102,0.279-0.072,0.379,0.08L344.038,227.02z"/>
			<path fill="#FFFFFF" d="M364.14,199.57c0.127,0,0.211,0.057,0.254,0.168l12.338,29.727c0.045,0.084,0.039,0.17-0.02,0.252
				c-0.055,0.086-0.133,0.129-0.23,0.129h-3.375c-0.127,0-0.211-0.061-0.254-0.17l-4.832-11.645h-10.695l-4.83,11.645
				c-0.045,0.109-0.129,0.17-0.254,0.17h-3.377c-0.098,0-0.176-0.043-0.232-0.129c-0.057-0.082-0.063-0.168-0.02-0.252l12.34-29.727
				c0.059-0.111,0.139-0.168,0.256-0.168H364.14z M366.479,214.359l-3.795-9.176l-3.818,9.176H366.479z"/>
			<path fill="#FFFFFF" d="M405.929,227.02c0.1,0.152,0.072,0.277-0.082,0.377c-2.49,1.631-5.242,2.449-8.25,2.449
				c-2.109,0-4.127-0.426-6.055-1.266c-1.857-0.818-3.488-1.971-4.893-3.461c-2.998-3.15-4.375-6.896-4.137-11.246
				c0.209-3.74,1.645-6.971,4.307-9.684c2.641-2.713,5.834-4.219,9.574-4.516c3.434-0.266,6.574,0.527,9.432,2.385
				c0.154,0.096,0.184,0.225,0.084,0.379l-1.855,2.721c-0.1,0.156-0.227,0.182-0.381,0.086c-2.111-1.363-4.43-1.947-6.963-1.75
				c-2.871,0.223-5.307,1.404-7.32,3.545c-1.996,2.135-3.018,4.656-3.061,7.551c-0.039,3.139,1.051,5.822,3.273,8.059
				c2.205,2.24,4.871,3.355,7.994,3.355c2.221,0,4.254-0.596,6.1-1.791c0.152-0.102,0.281-0.072,0.377,0.08L405.929,227.02z"/>
			<path fill="#FFFFFF" d="M417.362,199.633c0.18,0,0.273,0.094,0.273,0.277v29.66c0,0.182-0.094,0.275-0.273,0.275h-3.313
				c-0.184,0-0.275-0.094-0.275-0.275v-29.66c0-0.184,0.092-0.277,0.275-0.277H417.362z"/>
			<path fill="#FFFFFF" d="M441.536,199.633c4.162,0,7.721,1.475,10.674,4.43c2.953,2.951,4.432,6.512,4.432,10.676
				s-1.479,7.723-4.432,10.676c-2.953,2.949-6.512,4.432-10.674,4.432c-4.164,0-7.721-1.482-10.678-4.432
				c-2.953-2.953-4.428-6.512-4.428-10.676s1.475-7.725,4.428-10.676C433.815,201.107,437.372,199.633,441.536,199.633z
				 M441.536,225.984c3.096,0,5.744-1.096,7.953-3.293c2.193-2.191,3.291-4.844,3.291-7.953c0-3.096-1.098-5.748-3.291-7.951
				c-2.209-2.197-4.857-3.293-7.953-3.293c-3.109,0-5.762,1.096-7.955,3.293c-2.195,2.203-3.291,4.855-3.291,7.951
				c0,3.109,1.096,5.762,3.291,7.953C435.774,224.889,438.427,225.984,441.536,225.984z"/>
			<path fill="#FFFFFF" d="M487.774,199.613c0.184,0,0.275,0.088,0.275,0.27v29.688c0,0.182-0.092,0.275-0.275,0.275h-1.494
				c-0.086,0-0.158-0.037-0.213-0.107L469.97,208.24v21.33c0,0.182-0.092,0.275-0.273,0.275h-3.123
				c-0.184,0-0.271-0.094-0.271-0.275v-29.688c0-0.182,0.088-0.27,0.271-0.27h1.393c0.084,0,0.154,0.041,0.211,0.125l16.201,21.625
				v-21.48c0-0.182,0.092-0.27,0.275-0.27H487.774z"/>
			<path fill="#FFFFFF" d="M518.911,199.633c0.184,0,0.273,0.094,0.273,0.277v3.287c0,0.182-0.09,0.275-0.273,0.275h-16.057v9.346
				h11.627c0.184,0,0.275,0.094,0.275,0.277v3.289c0,0.182-0.092,0.275-0.275,0.275h-11.627v9.344h16.057
				c0.184,0,0.273,0.094,0.273,0.273v3.293c0,0.182-0.09,0.275-0.273,0.275h-19.619c-0.182,0-0.273-0.094-0.273-0.275v-29.66
				c0-0.184,0.092-0.277,0.273-0.277H518.911z"/>
			<path fill="#FFFFFF" d="M536.778,212.418c0.27,0.111,0.473,0.205,0.613,0.273l0.633,0.273c0.49,0.24,0.939,0.463,1.35,0.678
				c1.055,0.563,1.947,1.15,2.68,1.77c1.951,1.66,2.932,3.68,2.932,6.055c0,2.59-0.879,4.631-2.639,6.121
				c-1.756,1.508-4.146,2.258-7.172,2.258c-2.221,0-4.318-0.494-6.287-1.482c-0.689-0.35-1.334-0.75-1.939-1.199
				c-0.225-0.166-0.443-0.336-0.656-0.504c-0.152-0.127-0.293-0.258-0.42-0.383c-0.143-0.127-0.143-0.26,0-0.4l2.404-2.258
				c0.125-0.109,0.252-0.109,0.379,0c0.1,0.086,0.205,0.176,0.318,0.275c0.141,0.113,0.291,0.225,0.463,0.338
				c0.422,0.299,0.881,0.561,1.373,0.801c1.361,0.648,2.818,0.971,4.365,0.971c3.98,0,5.969-1.514,5.969-4.537
				c0-1.164-0.504-2.184-1.518-3.057c-0.857-0.744-2.328-1.574-4.408-2.488l-0.063-0.023l-0.99-0.486l-0.529-0.234l-0.57-0.25
				c-0.451-0.209-0.857-0.414-1.223-0.613c-0.945-0.488-1.744-1.018-2.406-1.58c-1.758-1.504-2.637-3.34-2.637-5.506
				c0-2.35,0.793-4.199,2.383-5.549c1.592-1.365,3.756-2.047,6.5-2.047c1.98,0,3.852,0.438,5.613,1.305
				c0.615,0.313,1.201,0.67,1.748,1.082c0.197,0.135,0.395,0.285,0.592,0.441c0.141,0.127,0.268,0.242,0.379,0.355
				c0.154,0.129,0.154,0.266,0,0.402l-1.184,1.119l-1.201,1.139c-0.127,0.115-0.25,0.121-0.379,0.021
				c-0.082-0.084-0.176-0.17-0.275-0.254c-0.123-0.1-0.26-0.195-0.4-0.295c-0.377-0.252-0.773-0.469-1.182-0.652
				c-1.168-0.553-2.402-0.824-3.711-0.824c-3.361,0-5.043,1.254-5.043,3.756c0,0.986,0.43,1.842,1.285,2.574
				c0.719,0.617,1.99,1.32,3.82,2.111l0.064,0.039L536.778,212.418z"/>
		</g>
	</g>
	<g>
		<g>
			<path fill="#FFFFFF" d="M106.042,184.643l-20.48-35.135H64.022v35.135H29.239V52.229H85.03c26.838,0,48.732,21.889,48.732,48.729
				c0,14.125-6.18,26.836-15.715,35.664l28.074,48.021H106.042z M64.022,119.496h21.539c10.594,0,19.068-8.299,19.068-18.893
				s-8.475-19.068-19.068-19.068H64.022V119.496z"/>
			<path fill="#FFFFFF" d="M163.251,52.229h82.275v28.775h-47.492v21.543h42.018v29.305h-42.018v24.367h47.492v28.424h-82.275
				V52.229z"/>
			<path fill="#FFFFFF" d="M270.427,52.229h49.084c36.547,0,66.207,29.66,66.207,66.205c0,36.547-29.66,66.209-66.207,66.209
				h-49.084V52.229z M305.032,150.391h14.654c17.303,0,31.426-14.123,31.426-31.428c0-17.125-14.123-31.25-31.426-31.25h-14.654
				V150.391z"/>
		</g>
	</g>
	<polygon fill="#FFFFFF" points="372.021,51.48 386.771,81.271 463.035,81.244 399.733,184.281 434.636,184.281 516.368,51.48 	"/>
	<polygon fill="#FFFFFF" points="459.679,35.854 462.669,41.973 533.312,41.958 491.052,110.65 498.235,110.65 544.28,35.854 	"/>
	<polygon fill="#FFFFFF" points="487.75,20.289 490.74,26.408 561.383,26.394 519.123,95.086 526.307,95.086 572.352,20.289 	"/>
</g>
</svg>
